<?xml version="1.0" ?><!DOCTYPE svg  PUBLIC '-//W3C//DTD SVG 1.1//EN'  'http://www.w3.org/Graphics/SVG/1.1/DTD/svg11.dtd'><svg enable-background="new 0 0 50 50" id="Layer_1" version="1.1" viewBox="0 0 50 50" xml:space="preserve" xmlns="http://www.w3.org/2000/svg" xmlns:xlink="http://www.w3.org/1999/xlink"><g id="cloud"><path d="M37.1,23h-0.9c1.9-3.7-1.9-7.4-6.5-7.4c-0.5,0-0.9,0-0.9,0c-0.5,0-0.9,0.4-0.9,0.9v13   c0,0.5,0.4,0.9,0.9,0.9h3.7h1.9h2.8c2.1,0,3.7-1.7,3.7-3.7S39.1,23,37.1,23z" fill="#FF7700" id="Cloud_1_"/><path d="M13.8,22.9c-0.5,0-0.9,0.4-0.9,0.9v5.7c0,0.5,0.4,0.9,0.9,0.9s0.9-0.4,0.9-0.9v-5.7   C14.8,23.3,14.4,22.9,13.8,22.9z" fill="#FF7700"/><path d="M21.3,16.5c-0.5,0-0.9,0.4-0.9,0.9v12.1c0,0.5,0.4,0.9,0.9,0.9s0.9-0.4,0.9-0.9V17.4   C22.2,16.9,21.8,16.5,21.3,16.5z" fill="#FF7700"/><path d="M25,19.3c-0.5,0-0.9,0.4-0.9,0.9v9.3c0,0.5,0.4,0.9,0.9,0.9c0.5,0,0.9-0.4,0.9-0.9v-9.3   C25.9,19.7,25.5,19.3,25,19.3z" fill="#FF7700"/><path d="M17.6,20.2c-0.5,0-0.9,0.4-0.9,0.9v8.4c0,0.5,0.4,0.9,0.9,0.9s0.9-0.4,0.9-0.9v-8.4   C18.5,20.6,18.1,20.2,17.6,20.2z" fill="#FF7700"/><path d="M10.1,25.7c-0.5,0-0.9,0.4-0.9,0.9v2.9c0,0.5,0.4,0.9,0.9,0.9s0.9-0.4,0.9-0.9v-2.9   C11.1,26.1,10.6,25.7,10.1,25.7z" fill="#FF7700"/></g><path d="M25,1C11.7,1,1,11.7,1,25s10.7,24,24,24s24-10.7,24-24S38.3,1,25,1z M25,44C14.5,44,6,35.5,6,25S14.5,6,25,6  s19,8.5,19,19S35.5,44,25,44z" fill="#FF7700"/></svg>